<svg xmlns="http://www.w3.org/2000/svg" viewBox="0 0 600 215.43">
    <path d="M639,986.07c-17-1-27.33-.33-40.5,2.67s-24.58,11.84-40.46,15c-13.56,2.69-31.27,2.9-46.2,1.35-17.7-1.83-35-9.06-35-9.06S456,987.07,439,986.07s-27.33-.33-40.5,2.67-24.58,11.84-40.46,15c-13.56,2.69-31.27,2.9-46.2,1.35-17.7-1.83-35-9.06-35-9.06S256,987.07,239,986.07s-27.33-.33-40.5,2.67-24.58,11.84-40.46,15c-13.56,2.69-31.27,2.9-46.2,1.35-17.7-1.83-35-9.06-35-9.06v205.06h600V996S656,987.07,639,986.07Z"
          transform="translate(-77 -985)" fill="#4242ff"></path>
</svg>