<?xml version="1.0" encoding="UTF-8"?>
<svg width="48px" height="93px" viewBox="0 0 48 93" version="1.1" xmlns="http://www.w3.org/2000/svg" xmlns:xlink="http://www.w3.org/1999/xlink">
    <!-- Generator: Sketch 45.2 (43514) - http://www.bohemiancoding.com/sketch -->
    <title>人形</title>
    <desc>Created with Sketch.</desc>
    <defs>
        <linearGradient x1="50%" y1="100%" x2="50%" y2="3.061617e-15%" id="linearGradient-1">
            <stop stop-color="#89DEE3" offset="0%"></stop>
            <stop stop-color="#14BEC8" offset="100%"></stop>
        </linearGradient>
    </defs>
    <g id="移动端" stroke="none" stroke-width="1" fill="none" fill-rule="evenodd">
        <g id="公司主页-大数据看公司-镀金实力收起" transform="translate(-101.000000, -3993.000000)" fill="url(#linearGradient-1)">
            <path d="M112,4028 L112,4079.92411 C112,4083.27973 114.238576,4086 117,4086 C119.761424,4086 122,4083.27973 122,4079.92411 L122,4059 C122,4057.34315 123.343146,4056 125,4056 C126.656854,4056 128,4057.34315 128,4059 L128,4079.92411 C128,4083.27973 130.238576,4086 133,4086 C135.761424,4086 138,4083.27973 138,4079.92411 L138,4028 L139,4028 L139,4044 C139,4046.76142 141.238576,4049 144,4049 C146.761424,4049 149,4046.76142 149,4044 L149,4025 C149,4018.37258 143.627417,4013 137,4013 L113,4013 C106.372583,4013 101,4018.37258 101,4025 L101,4044 C101,4046.76142 103.238576,4049 106,4049 L106,4049 C108.761424,4049 111,4046.76142 111,4044 L111,4044 L111,4028 L112,4028 Z M125,4011 C120.029437,4011 116,4006.97056 116,4002 C116,3997.02944 120.029437,3993 125,3993 C129.970563,3993 134,3997.02944 134,4002 C134,4006.97056 129.970563,4011 125,4011 Z" id="人形"></path>
        </g>
    </g>
</svg>